<?xml version="1.0" encoding="UTF-8"?>
<svg width="41px" height="41px" viewBox="0 0 41 41" version="1.1" xmlns="http://www.w3.org/2000/svg" xmlns:xlink="http://www.w3.org/1999/xlink">
    <title>icon</title>
    <g id="icon" stroke="none" stroke-width="1" fill="none" fill-rule="evenodd" fill-opacity="0.8">
        <path d="M30.654357,31.223263 C36.297509,31.223263 40.872186,26.648584 40.872186,21.005431 C40.872186,15.362278 36.297509,10.787598 30.654357,10.787598 C25.011204,10.787598 20.436523,15.362278 20.436523,21.005431 C20.436523,26.648584 25.011204,31.223263 30.654357,31.223263 Z" id="Fill-7" fill="#8338EC"></path>
        <path d="M10.217832,31.223263 C15.860984,31.223263 20.435663,26.648584 20.435663,21.005431 C20.435663,15.362278 15.860984,10.787598 10.217832,10.787598 C4.574679,10.787598 0,15.362278 0,21.005431 C0,26.648584 4.574679,31.223263 10.217832,31.223263 Z" id="Fill-8" fill="#3A86FF"></path>
        <path d="M20.435117,20.435663 C26.07827,20.435663 30.65295,15.860984 30.65295,10.217832 C30.65295,4.574679 26.07827,0 20.435117,0 C14.791964,0 10.217285,4.574679 10.217285,10.217832 C10.217285,15.860984 14.791964,20.435663 20.435117,20.435663 Z" id="Fill-9" fill="#FFBE0B"></path>
        <path d="M20.435117,40.728146 C26.07827,40.728146 30.65295,36.153467 30.65295,30.510314 C30.65295,24.867161 26.07827,20.292481 20.435117,20.292481 C14.791964,20.292481 10.217285,24.867161 10.217285,30.510314 C10.217285,36.153467 14.791964,40.728146 20.435117,40.728146 Z" id="Fill-10" fill="#FB5607"></path>
    </g>
</svg>